<svg width="607" height="910" viewBox="0 0 607 910" fill="none" xmlns="http://www.w3.org/2000/svg">
<rect x="1" width="605.064" height="909.338" rx="20" fill="url(#paint0_linear)"/>
<path d="M69.7831 619.164L70.8631 616.716C71.7991 617.22 72.9511 617.676 74.3191 618.084C75.7111 618.492 76.9111 618.696 77.9191 618.696C78.9511 618.696 79.7191 618.54 80.2231 618.228C81.2311 617.532 81.7351 616.308 81.7351 614.556C81.7351 613.332 81.3631 612.36 80.6191 611.64C79.8991 610.92 78.9871 610.332 77.8831 609.876C76.7791 609.396 76.0351 609.084 75.6511 608.94C75.2911 608.772 74.7631 608.508 74.0671 608.148C73.3711 607.764 72.8671 607.416 72.5551 607.104C72.2671 606.768 71.9431 606.36 71.5831 605.88C70.9111 604.992 70.5751 603.66 70.5751 601.884C70.5751 600.108 71.2111 598.608 72.4831 597.384C73.7791 596.136 75.6151 595.512 77.9911 595.512C79.8391 595.512 81.7951 595.776 83.8591 596.304L83.3551 598.896C81.3391 598.464 79.5751 598.248 78.0631 598.248C76.5751 598.248 75.5671 598.404 75.0391 598.716C74.1751 599.196 73.7431 600.228 73.7431 601.812C73.7431 602.868 74.0911 603.792 74.7871 604.584C75.2911 605.136 76.1671 605.688 77.4151 606.24C77.7271 606.384 78.2911 606.624 79.1071 606.96C79.9471 607.296 80.6431 607.62 81.1951 607.932C81.7471 608.244 82.3351 608.676 82.9591 609.228C84.2311 610.332 84.8671 611.976 84.8671 614.16C84.8671 616.344 84.1711 618.108 82.7791 619.452C81.3871 620.796 79.5751 621.468 77.3431 621.468C76.1671 621.468 74.9431 621.276 73.6711 620.892C72.4231 620.508 71.4631 620.124 70.7911 619.74L69.7831 619.164ZM97.7458 621.468C92.1778 621.468 89.3938 617.82 89.3938 610.524C89.3938 603.228 92.1538 599.58 97.6738 599.58C100.122 599.58 101.958 600.348 103.182 601.884C104.406 603.396 105.018 605.916 105.018 609.444V611.676H92.5618C92.5618 614.916 93.0778 617.016 94.1098 617.976C94.7578 618.552 95.6458 618.84 96.7738 618.84C98.7898 618.84 100.77 618.504 102.714 617.832L103.686 617.472L104.442 619.92C102.426 620.952 100.194 621.468 97.7458 621.468ZM101.13 603.252C100.65 602.532 99.4738 602.172 97.6018 602.172C95.7298 602.172 94.4218 602.664 93.6778 603.648C92.9338 604.632 92.5618 606.516 92.5618 609.3L101.958 609.12C101.958 606.12 101.682 604.164 101.13 603.252ZM113.598 621H110.61V593.892H113.598V621ZM127.699 621.468C122.131 621.468 119.347 617.82 119.347 610.524C119.347 603.228 122.107 599.58 127.627 599.58C130.075 599.58 131.911 600.348 133.135 601.884C134.359 603.396 134.971 605.916 134.971 609.444V611.676H122.515C122.515 614.916 123.031 617.016 124.063 617.976C124.711 618.552 125.599 618.84 126.727 618.84C128.743 618.84 130.723 618.504 132.667 617.832L133.639 617.472L134.395 619.92C132.379 620.952 130.147 621.468 127.699 621.468ZM131.083 603.252C130.603 602.532 129.427 602.172 127.555 602.172C125.683 602.172 124.375 602.664 123.631 603.648C122.887 604.632 122.515 606.516 122.515 609.3L131.911 609.12C131.911 606.12 131.635 604.164 131.083 603.252ZM148.303 602.208C146.479 602.208 145.255 602.52 144.631 603.144C144.151 603.672 143.755 604.62 143.443 605.988C143.131 607.332 142.975 608.892 142.975 610.668C142.975 614.7 143.743 617.244 145.279 618.3C145.807 618.684 146.503 618.876 147.367 618.876C148.255 618.876 149.203 618.744 150.211 618.48C151.243 618.192 152.359 617.772 153.559 617.22L154.495 619.56C154.303 619.704 154.027 619.884 153.667 620.1C153.331 620.316 152.599 620.604 151.471 620.964C150.367 621.3 149.251 621.468 148.123 621.468C145.531 621.468 143.503 620.58 142.039 618.804C140.575 617.004 139.843 614.172 139.843 610.308C139.843 606.42 140.647 603.66 142.255 602.028C143.863 600.396 146.071 599.58 148.879 599.58C150.703 599.58 152.407 599.772 153.991 600.156L153.631 602.676C151.039 602.364 149.263 602.208 148.303 602.208ZM162.94 601.272H167.116V603.684H162.94V614.556C162.94 616.572 163.036 617.784 163.228 618.192C163.444 618.6 164.08 618.804 165.136 618.804L167.08 618.732V621.144C166.576 621.264 165.904 621.324 165.064 621.324C163.336 621.324 162.052 620.856 161.212 619.92C160.372 618.96 159.952 617.1 159.952 614.34V603.612H157.576V601.74L160.06 601.236L160.852 596.34H162.94V601.272ZM184.139 601.272H188.315V603.684H184.139V614.556C184.139 616.572 184.235 617.784 184.427 618.192C184.643 618.6 185.279 618.804 186.335 618.804L188.279 618.732V621.144C187.775 621.264 187.103 621.324 186.263 621.324C184.535 621.324 183.251 620.856 182.411 619.92C181.571 618.96 181.151 617.1 181.151 614.34V603.612H178.775V601.74L181.259 601.236L182.051 596.34H184.139V601.272ZM196.316 621H193.328V593.892H196.316V601.344C199.028 600.168 201.14 599.58 202.652 599.58C204.692 599.58 206.108 600.192 206.9 601.416C207.716 602.616 208.124 604.5 208.124 607.068V621H205.136V608.112C205.136 605.496 204.896 603.84 204.416 603.144C204.056 602.64 203.42 602.388 202.508 602.388C200.78 602.388 199.016 602.76 197.216 603.504L196.316 603.9V621ZM222.164 621.468C216.596 621.468 213.812 617.82 213.812 610.524C213.812 603.228 216.572 599.58 222.092 599.58C224.54 599.58 226.376 600.348 227.6 601.884C228.824 603.396 229.436 605.916 229.436 609.444V611.676H216.98C216.98 614.916 217.496 617.016 218.528 617.976C219.176 618.552 220.064 618.84 221.192 618.84C223.208 618.84 225.188 618.504 227.132 617.832L228.104 617.472L228.86 619.92C226.844 620.952 224.612 621.468 222.164 621.468ZM225.548 603.252C225.068 602.532 223.892 602.172 222.02 602.172C220.148 602.172 218.84 602.664 218.096 603.648C217.352 604.632 216.98 606.516 216.98 609.3L226.376 609.12C226.376 606.12 226.1 604.164 225.548 603.252ZM246.678 621H243.69V600.048H246.678V621ZM247.038 596.952H243.366V593.892H247.038V596.952ZM263.235 602.424C261.651 602.424 259.611 603.048 257.115 604.296V621H254.127V600.048H256.143L256.467 602.1H256.647C259.455 600.42 261.831 599.58 263.775 599.58C264.807 599.58 265.695 599.82 266.439 600.3C267.183 600.78 267.723 601.44 268.059 602.28C268.971 601.728 269.715 601.296 270.291 600.984C270.867 600.672 271.635 600.36 272.595 600.048C273.579 599.736 274.503 599.58 275.367 599.58C277.215 599.58 278.499 600.228 279.219 601.524C279.963 602.796 280.335 604.692 280.335 607.212V621H277.347V608.22C277.347 605.46 277.167 603.804 276.807 603.252C276.471 602.7 275.799 602.424 274.791 602.424C273.063 602.424 270.999 603.108 268.599 604.476C268.695 605.532 268.743 606.396 268.743 607.068V621H265.755V608.112C265.755 606.576 265.719 605.472 265.647 604.8C265.575 604.128 265.383 603.564 265.071 603.108C264.783 602.652 264.171 602.424 263.235 602.424ZM293.727 608.112H297.543C297.543 605.304 297.327 603.612 296.895 603.036C296.487 602.46 295.719 602.172 294.591 602.172C293.463 602.172 292.263 602.328 290.991 602.64C289.743 602.928 288.399 603.372 286.959 603.972L285.915 601.632C286.227 601.488 286.635 601.308 287.139 601.092C287.667 600.852 288.639 600.54 290.055 600.156C291.471 599.772 292.767 599.58 293.943 599.58C298.335 599.58 300.531 602.124 300.531 607.212V621H298.587L298.155 618.804H297.939C297.699 618.996 297.363 619.248 296.931 619.56C296.499 619.848 295.683 620.244 294.483 620.748C293.283 621.228 292.155 621.468 291.099 621.468C289.395 621.468 288.027 620.892 286.995 619.74C285.963 618.564 285.447 616.848 285.447 614.592C285.447 612.312 286.155 610.668 287.571 609.66C288.987 608.628 291.039 608.112 293.727 608.112ZM297.543 610.884C296.511 610.716 295.047 610.632 293.151 610.632C291.279 610.632 290.079 610.86 289.551 611.316C288.903 611.82 288.579 612.888 288.579 614.52C288.579 616.128 288.807 617.244 289.263 617.868C289.743 618.492 290.451 618.804 291.387 618.804C292.347 618.804 293.319 618.648 294.303 618.336C295.287 618 296.367 617.508 297.543 616.86V610.884ZM320.38 607.14C320.38 609.252 319.696 610.968 318.328 612.288C316.984 613.584 315.136 614.232 312.784 614.232C312.544 615.648 312.424 616.404 312.424 616.5C312.424 616.572 312.676 616.716 313.18 616.932C313.708 617.148 314.044 617.28 314.188 617.328C314.908 617.64 315.4 617.856 315.664 617.976C317.608 618.792 318.952 619.596 319.696 620.388C320.464 621.18 320.848 622.008 320.848 622.872C320.848 624.312 320.14 625.428 318.724 626.22C317.308 627.036 315.424 627.444 313.072 627.444C311.92 627.444 310.768 627.36 309.616 627.192C308.464 627.048 307.312 626.808 306.16 626.472L306.52 623.772C309.976 624.372 312.532 624.672 314.188 624.672C315.868 624.672 316.948 624.564 317.428 624.348C317.908 624.156 318.148 623.808 318.148 623.304C318.148 622.8 317.872 622.356 317.32 621.972C316.552 621.444 315.004 620.712 312.676 619.776C310.372 618.816 309.22 618.276 309.22 618.156L310.912 614.016C309.28 613.632 307.996 612.828 307.06 611.604C306.124 610.38 305.656 608.928 305.656 607.248C305.656 604.512 306.412 602.556 307.924 601.38C309.46 600.18 311.464 599.58 313.936 599.58C315.4 599.58 317.932 599.724 321.532 600.012V601.92L319.156 602.28C319.972 604.08 320.38 605.7 320.38 607.14ZM313.36 602.244C311.608 602.244 310.372 602.58 309.652 603.252C308.932 603.9 308.572 605.124 308.572 606.924C308.572 608.724 308.896 609.948 309.544 610.596C310.216 611.244 311.368 611.568 313 611.568C314.656 611.568 315.82 611.256 316.492 610.632C317.164 609.984 317.5 608.796 317.5 607.068C317.5 605.388 317.404 604.224 317.212 603.576C317.02 602.904 316.876 602.544 316.78 602.496C316.636 602.376 315.496 602.292 313.36 602.244ZM333.609 621.468C328.041 621.468 325.257 617.82 325.257 610.524C325.257 603.228 328.017 599.58 333.537 599.58C335.985 599.58 337.821 600.348 339.045 601.884C340.269 603.396 340.881 605.916 340.881 609.444V611.676H328.425C328.425 614.916 328.941 617.016 329.973 617.976C330.621 618.552 331.509 618.84 332.637 618.84C334.653 618.84 336.633 618.504 338.577 617.832L339.549 617.472L340.305 619.92C338.289 620.952 336.057 621.468 333.609 621.468ZM336.993 603.252C336.513 602.532 335.337 602.172 333.465 602.172C331.593 602.172 330.285 602.664 329.541 603.648C328.797 604.632 328.425 606.516 328.425 609.3L337.821 609.12C337.821 606.12 337.545 604.164 336.993 603.252ZM358.303 601.272H362.479V603.684H358.303V614.556C358.303 616.572 358.399 617.784 358.591 618.192C358.807 618.6 359.443 618.804 360.499 618.804L362.443 618.732V621.144C361.939 621.264 361.267 621.324 360.427 621.324C358.699 621.324 357.415 620.856 356.575 619.92C355.735 618.96 355.315 617.1 355.315 614.34V603.612H352.939V601.74L355.423 601.236L356.215 596.34H358.303V601.272ZM366.952 610.56C366.952 606.96 367.54 604.236 368.716 602.388C369.916 600.516 371.932 599.58 374.764 599.58C377.62 599.58 379.648 600.516 380.848 602.388C382.048 604.236 382.648 606.948 382.648 610.524C382.648 614.1 382.048 616.824 380.848 618.696C379.648 620.544 377.62 621.468 374.764 621.468C371.932 621.468 369.916 620.544 368.716 618.696C367.54 616.848 366.952 614.136 366.952 610.56ZM377.68 602.784C377.056 602.376 376.096 602.172 374.8 602.172C373.504 602.172 372.532 602.376 371.884 602.784C371.26 603.192 370.78 603.996 370.444 605.196C370.132 606.372 369.976 608.148 369.976 610.524C369.976 612.9 370.132 614.688 370.444 615.888C370.756 617.088 371.236 617.892 371.884 618.3C372.532 618.708 373.504 618.912 374.8 618.912C376.096 618.912 377.056 618.708 377.68 618.3C378.328 617.892 378.808 617.088 379.12 615.888C379.432 614.688 379.588 612.9 379.588 610.524C379.588 608.148 379.432 606.372 379.12 605.196C378.808 603.996 378.328 603.192 377.68 602.784ZM403.485 608.112H407.301C407.301 605.304 407.085 603.612 406.653 603.036C406.245 602.46 405.477 602.172 404.349 602.172C403.221 602.172 402.021 602.328 400.749 602.64C399.501 602.928 398.157 603.372 396.717 603.972L395.673 601.632C395.985 601.488 396.393 601.308 396.897 601.092C397.425 600.852 398.397 600.54 399.813 600.156C401.229 599.772 402.525 599.58 403.701 599.58C408.093 599.58 410.289 602.124 410.289 607.212V621H408.345L407.913 618.804H407.697C407.457 618.996 407.121 619.248 406.689 619.56C406.257 619.848 405.441 620.244 404.241 620.748C403.041 621.228 401.913 621.468 400.857 621.468C399.153 621.468 397.785 620.892 396.753 619.74C395.721 618.564 395.205 616.848 395.205 614.592C395.205 612.312 395.913 610.668 397.329 609.66C398.745 608.628 400.797 608.112 403.485 608.112ZM407.301 610.884C406.269 610.716 404.805 610.632 402.909 610.632C401.037 610.632 399.837 610.86 399.309 611.316C398.661 611.82 398.337 612.888 398.337 614.52C398.337 616.128 398.565 617.244 399.021 617.868C399.501 618.492 400.209 618.804 401.145 618.804C402.105 618.804 403.077 618.648 404.061 618.336C405.045 618 406.125 617.508 407.301 616.86V610.884ZM420.345 621H417.357V600.048H419.373L419.697 602.1H419.877C422.757 600.42 425.253 599.58 427.365 599.58C429.261 599.58 430.569 600.312 431.289 601.776C431.889 603 432.189 604.764 432.189 607.068V621H429.165V608.112C429.165 605.376 428.985 603.744 428.625 603.216C428.289 602.688 427.641 602.424 426.681 602.424C424.857 602.424 422.745 603.06 420.345 604.332V621ZM445.567 608.112H449.383C449.383 605.304 449.167 603.612 448.735 603.036C448.327 602.46 447.559 602.172 446.431 602.172C445.303 602.172 444.103 602.328 442.831 602.64C441.583 602.928 440.239 603.372 438.799 603.972L437.755 601.632C438.067 601.488 438.475 601.308 438.979 601.092C439.507 600.852 440.479 600.54 441.895 600.156C443.311 599.772 444.607 599.58 445.783 599.58C450.175 599.58 452.371 602.124 452.371 607.212V621H450.427L449.995 618.804H449.779C449.539 618.996 449.203 619.248 448.771 619.56C448.339 619.848 447.523 620.244 446.323 620.748C445.123 621.228 443.995 621.468 442.939 621.468C441.235 621.468 439.867 620.892 438.835 619.74C437.803 618.564 437.287 616.848 437.287 614.592C437.287 612.312 437.995 610.668 439.411 609.66C440.827 608.628 442.879 608.112 445.567 608.112ZM449.383 610.884C448.351 610.716 446.887 610.632 444.991 610.632C443.119 610.632 441.919 610.86 441.391 611.316C440.743 611.82 440.419 612.888 440.419 614.52C440.419 616.128 440.647 617.244 441.103 617.868C441.583 618.492 442.291 618.804 443.227 618.804C444.187 618.804 445.159 618.648 446.143 618.336C447.127 618 448.207 617.508 449.383 616.86V610.884ZM462.032 621H459.044V593.892H462.032V621ZM469.761 626.976L472.605 618.948L465.369 600.048H468.897L473.829 615.42H474.009L478.905 600.048H482.145L474.873 619.668L472.929 626.976H469.761ZM483.36 621V618.588L494.124 602.568V602.352L483.828 602.532V600.048H497.58V602.46L486.852 618.48V618.696L497.796 618.516V621H483.36ZM509.953 621.468C504.385 621.468 501.601 617.82 501.601 610.524C501.601 603.228 504.361 599.58 509.881 599.58C512.329 599.58 514.165 600.348 515.389 601.884C516.613 603.396 517.225 605.916 517.225 609.444V611.676H504.769C504.769 614.916 505.285 617.016 506.317 617.976C506.965 618.552 507.853 618.84 508.981 618.84C510.997 618.84 512.977 618.504 514.921 617.832L515.893 617.472L516.649 619.92C514.633 620.952 512.401 621.468 509.953 621.468ZM513.337 603.252C512.857 602.532 511.681 602.172 509.809 602.172C507.937 602.172 506.629 602.664 505.885 603.648C505.141 604.632 504.769 606.516 504.769 609.3L514.165 609.12C514.165 606.12 513.889 604.164 513.337 603.252Z" fill="black"/>
<path d="M90.5732 767H87.5132L87.6932 755.156L87.5852 741.98C89.9132 741.668 92.5652 741.512 95.5412 741.512C100.869 741.512 103.533 744.104 103.533 749.288C103.533 753.392 101.757 755.864 98.2052 756.704V756.848L103.857 767H100.257L95.1092 757.064L90.5732 756.884V767ZM90.5372 754.184C92.7932 754.424 94.6772 754.544 96.1892 754.544C97.7012 754.544 98.7692 754.148 99.3932 753.356C100.017 752.54 100.329 751.172 100.329 749.252C100.329 746.516 99.8612 744.872 98.9252 744.32C98.3732 743.984 97.3412 743.816 95.8292 743.816C94.3412 743.816 92.6012 743.948 90.6092 744.212L90.5372 754.184ZM117.457 767.468C111.889 767.468 109.105 763.82 109.105 756.524C109.105 749.228 111.865 745.58 117.385 745.58C119.833 745.58 121.669 746.348 122.893 747.884C124.117 749.396 124.729 751.916 124.729 755.444V757.676H112.273C112.273 760.916 112.789 763.016 113.821 763.976C114.469 764.552 115.357 764.84 116.485 764.84C118.501 764.84 120.481 764.504 122.425 763.832L123.397 763.472L124.153 765.92C122.137 766.952 119.905 767.468 117.457 767.468ZM120.841 749.252C120.361 748.532 119.185 748.172 117.313 748.172C115.441 748.172 114.133 748.664 113.389 749.648C112.645 750.632 112.273 752.516 112.273 755.3L121.669 755.12C121.669 752.12 121.393 750.164 120.841 749.252ZM138.061 748.208C136.237 748.208 135.013 748.52 134.389 749.144C133.909 749.672 133.513 750.62 133.201 751.988C132.889 753.332 132.733 754.892 132.733 756.668C132.733 760.7 133.501 763.244 135.037 764.3C135.565 764.684 136.261 764.876 137.125 764.876C138.013 764.876 138.961 764.744 139.969 764.48C141.001 764.192 142.117 763.772 143.317 763.22L144.253 765.56C144.061 765.704 143.785 765.884 143.425 766.1C143.089 766.316 142.357 766.604 141.229 766.964C140.125 767.3 139.009 767.468 137.881 767.468C135.289 767.468 133.261 766.58 131.797 764.804C130.333 763.004 129.601 760.172 129.601 756.308C129.601 752.42 130.405 749.66 132.013 748.028C133.621 746.396 135.829 745.58 138.637 745.58C140.461 745.58 142.165 745.772 143.749 746.156L143.389 748.676C140.797 748.364 139.021 748.208 138.061 748.208ZM152.518 767H149.53V746.048H152.518V767ZM152.878 742.952H149.206V739.892H152.878V742.952ZM167.203 767.468C161.635 767.468 158.851 763.82 158.851 756.524C158.851 749.228 161.611 745.58 167.131 745.58C169.579 745.58 171.415 746.348 172.639 747.884C173.863 749.396 174.475 751.916 174.475 755.444V757.676H162.019C162.019 760.916 162.535 763.016 163.567 763.976C164.215 764.552 165.103 764.84 166.231 764.84C168.247 764.84 170.227 764.504 172.171 763.832L173.143 763.472L173.899 765.92C171.883 766.952 169.651 767.468 167.203 767.468ZM170.587 749.252C170.107 748.532 168.931 748.172 167.059 748.172C165.187 748.172 163.879 748.664 163.135 749.648C162.391 750.632 162.019 752.516 162.019 755.3L171.415 755.12C171.415 752.12 171.139 750.164 170.587 749.252ZM193.351 746.048L187.123 767H183.415L177.331 746.048H180.571L185.179 764.552H185.395L190.111 746.048H193.351ZM204.75 767.468C199.182 767.468 196.398 763.82 196.398 756.524C196.398 749.228 199.158 745.58 204.678 745.58C207.126 745.58 208.962 746.348 210.186 747.884C211.41 749.396 212.022 751.916 212.022 755.444V757.676H199.566C199.566 760.916 200.082 763.016 201.114 763.976C201.762 764.552 202.65 764.84 203.778 764.84C205.794 764.84 207.774 764.504 209.718 763.832L210.69 763.472L211.446 765.92C209.43 766.952 207.198 767.468 204.75 767.468ZM208.134 749.252C207.654 748.532 206.478 748.172 204.606 748.172C202.734 748.172 201.426 748.664 200.682 749.648C199.938 750.632 199.566 752.516 199.566 755.3L208.962 755.12C208.962 752.12 208.686 750.164 208.134 749.252ZM232.684 754.112H236.5C236.5 751.304 236.284 749.612 235.852 749.036C235.444 748.46 234.676 748.172 233.548 748.172C232.42 748.172 231.22 748.328 229.948 748.64C228.7 748.928 227.356 749.372 225.916 749.972L224.872 747.632C225.184 747.488 225.592 747.308 226.096 747.092C226.624 746.852 227.596 746.54 229.012 746.156C230.428 745.772 231.724 745.58 232.9 745.58C237.292 745.58 239.488 748.124 239.488 753.212V767H237.544L237.112 764.804H236.896C236.656 764.996 236.32 765.248 235.888 765.56C235.456 765.848 234.64 766.244 233.44 766.748C232.24 767.228 231.112 767.468 230.056 767.468C228.352 767.468 226.984 766.892 225.952 765.74C224.92 764.564 224.404 762.848 224.404 760.592C224.404 758.312 225.112 756.668 226.528 755.66C227.944 754.628 229.996 754.112 232.684 754.112ZM236.5 756.884C235.468 756.716 234.004 756.632 232.108 756.632C230.236 756.632 229.036 756.86 228.508 757.316C227.86 757.82 227.536 758.888 227.536 760.52C227.536 762.128 227.764 763.244 228.22 763.868C228.7 764.492 229.408 764.804 230.344 764.804C231.304 764.804 232.276 764.648 233.26 764.336C234.244 764 235.324 763.508 236.5 762.86V756.884ZM268.683 739.892V767H266.703L266.307 764.84H266.091C265.899 765.032 265.623 765.272 265.263 765.56C264.903 765.848 264.195 766.244 263.139 766.748C262.107 767.228 261.111 767.468 260.151 767.468C258.111 767.468 256.491 766.592 255.291 764.84C254.115 763.064 253.527 760.424 253.527 756.92C253.527 749.36 256.011 745.58 260.979 745.58C262.251 745.58 263.823 745.832 265.695 746.336V739.892H268.683ZM265.695 749.216C264.159 748.568 262.599 748.244 261.015 748.244C259.455 748.244 258.435 748.532 257.955 749.108C257.091 750.236 256.659 752.852 256.659 756.956C256.659 761.036 257.199 763.496 258.279 764.336C258.591 764.624 259.191 764.768 260.079 764.768C260.991 764.768 261.891 764.612 262.779 764.3C263.691 763.988 264.663 763.52 265.695 762.896V749.216ZM282.797 767.468C277.229 767.468 274.445 763.82 274.445 756.524C274.445 749.228 277.205 745.58 282.725 745.58C285.173 745.58 287.009 746.348 288.233 747.884C289.457 749.396 290.069 751.916 290.069 755.444V757.676H277.613C277.613 760.916 278.129 763.016 279.161 763.976C279.809 764.552 280.697 764.84 281.825 764.84C283.841 764.84 285.821 764.504 287.765 763.832L288.737 763.472L289.493 765.92C287.477 766.952 285.245 767.468 282.797 767.468ZM286.181 749.252C285.701 748.532 284.525 748.172 282.653 748.172C280.781 748.172 279.473 748.664 278.729 749.648C277.985 750.632 277.613 752.516 277.613 755.3L287.009 755.12C287.009 752.12 286.733 750.164 286.181 749.252ZM299.405 747.272H303.581V749.684H299.405V760.556C299.405 762.572 299.501 763.784 299.693 764.192C299.909 764.6 300.545 764.804 301.601 764.804L303.545 764.732V767.144C303.041 767.264 302.369 767.324 301.529 767.324C299.801 767.324 298.517 766.856 297.677 765.92C296.837 764.96 296.417 763.1 296.417 760.34V749.612H294.041V747.74L296.525 747.236L297.317 742.34H299.405V747.272ZM315.758 754.112H319.574C319.574 751.304 319.358 749.612 318.926 749.036C318.518 748.46 317.75 748.172 316.622 748.172C315.494 748.172 314.294 748.328 313.022 748.64C311.774 748.928 310.43 749.372 308.99 749.972L307.946 747.632C308.258 747.488 308.666 747.308 309.17 747.092C309.698 746.852 310.67 746.54 312.086 746.156C313.502 745.772 314.798 745.58 315.974 745.58C320.366 745.58 322.562 748.124 322.562 753.212V767H320.618L320.186 764.804H319.97C319.73 764.996 319.394 765.248 318.962 765.56C318.53 765.848 317.714 766.244 316.514 766.748C315.314 767.228 314.186 767.468 313.13 767.468C311.426 767.468 310.058 766.892 309.026 765.74C307.994 764.564 307.478 762.848 307.478 760.592C307.478 758.312 308.186 756.668 309.602 755.66C311.018 754.628 313.07 754.112 315.758 754.112ZM319.574 756.884C318.542 756.716 317.078 756.632 315.182 756.632C313.31 756.632 312.11 756.86 311.582 757.316C310.934 757.82 310.61 758.888 310.61 760.52C310.61 762.128 310.838 763.244 311.294 763.868C311.774 764.492 312.482 764.804 313.418 764.804C314.378 764.804 315.35 764.648 316.334 764.336C317.318 764 318.398 763.508 319.574 762.86V756.884ZM332.799 767H329.811V746.048H332.799V767ZM333.159 742.952H329.487V739.892H333.159V742.952ZM342.84 767H339.852V739.892H342.84V767ZM356.941 767.468C351.373 767.468 348.589 763.82 348.589 756.524C348.589 749.228 351.349 745.58 356.869 745.58C359.317 745.58 361.153 746.348 362.377 747.884C363.601 749.396 364.213 751.916 364.213 755.444V757.676H351.757C351.757 760.916 352.273 763.016 353.305 763.976C353.953 764.552 354.841 764.84 355.969 764.84C357.985 764.84 359.965 764.504 361.909 763.832L362.881 763.472L363.637 765.92C361.621 766.952 359.389 767.468 356.941 767.468ZM360.325 749.252C359.845 748.532 358.669 748.172 356.797 748.172C354.925 748.172 353.617 748.664 352.873 749.648C352.129 750.632 351.757 752.516 351.757 755.3L361.153 755.12C361.153 752.12 360.877 750.164 360.325 749.252ZM384.241 739.892V767H382.261L381.865 764.84H381.649C381.457 765.032 381.181 765.272 380.821 765.56C380.461 765.848 379.753 766.244 378.697 766.748C377.665 767.228 376.669 767.468 375.709 767.468C373.669 767.468 372.049 766.592 370.849 764.84C369.673 763.064 369.085 760.424 369.085 756.92C369.085 749.36 371.569 745.58 376.537 745.58C377.809 745.58 379.381 745.832 381.253 746.336V739.892H384.241ZM381.253 749.216C379.717 748.568 378.157 748.244 376.573 748.244C375.013 748.244 373.993 748.532 373.513 749.108C372.649 750.236 372.217 752.852 372.217 756.956C372.217 761.036 372.757 763.496 373.837 764.336C374.149 764.624 374.749 764.768 375.637 764.768C376.549 764.768 377.449 764.612 378.337 764.3C379.249 763.988 380.221 763.52 381.253 762.896V749.216ZM408.817 748.64C408.265 748.592 407.665 748.568 407.017 748.568C406.393 748.568 405.577 748.76 404.569 749.144C403.561 749.528 402.769 749.948 402.193 750.404V767H399.205V746.048H401.113L401.509 748.172H401.725C402.709 747.452 403.753 746.84 404.857 746.336C405.961 745.832 406.873 745.58 407.593 745.58L409.069 745.76L408.817 748.64ZM420.644 767.468C415.076 767.468 412.292 763.82 412.292 756.524C412.292 749.228 415.052 745.58 420.572 745.58C423.02 745.58 424.856 746.348 426.08 747.884C427.304 749.396 427.916 751.916 427.916 755.444V757.676H415.46C415.46 760.916 415.976 763.016 417.008 763.976C417.656 764.552 418.544 764.84 419.672 764.84C421.688 764.84 423.668 764.504 425.612 763.832L426.584 763.472L427.34 765.92C425.324 766.952 423.092 767.468 420.644 767.468ZM424.028 749.252C423.548 748.532 422.372 748.172 420.5 748.172C418.628 748.172 417.32 748.664 416.576 749.648C415.832 750.632 415.46 752.516 415.46 755.3L424.856 755.12C424.856 752.12 424.58 750.164 424.028 749.252ZM436.316 772.976H433.328V746.048H435.344L435.74 748.172H435.92C435.968 748.148 436.232 747.968 436.712 747.632C437.192 747.296 437.648 746.996 438.08 746.732C438.536 746.468 439.148 746.216 439.916 745.976C440.684 745.712 441.44 745.58 442.184 745.58C444.2 745.58 445.76 746.444 446.864 748.172C447.968 749.9 448.52 752.552 448.52 756.128C448.52 763.688 445.988 767.468 440.924 767.468C439.82 767.468 438.284 767.3 436.316 766.964V772.976ZM436.316 764.084C438.356 764.588 439.976 764.84 441.176 764.84C442.376 764.84 443.204 764.648 443.66 764.264C444.788 763.328 445.352 760.424 445.352 755.552C445.352 751.808 445.004 749.588 444.308 748.892C443.9 748.484 443.252 748.28 442.364 748.28C441.476 748.28 440.528 748.448 439.52 748.784C438.536 749.096 437.468 749.576 436.316 750.224V764.084ZM453.566 756.56C453.566 752.96 454.154 750.236 455.33 748.388C456.53 746.516 458.546 745.58 461.378 745.58C464.234 745.58 466.262 746.516 467.462 748.388C468.662 750.236 469.262 752.948 469.262 756.524C469.262 760.1 468.662 762.824 467.462 764.696C466.262 766.544 464.234 767.468 461.378 767.468C458.546 767.468 456.53 766.544 455.33 764.696C454.154 762.848 453.566 760.136 453.566 756.56ZM464.294 748.784C463.67 748.376 462.71 748.172 461.414 748.172C460.118 748.172 459.146 748.376 458.498 748.784C457.874 749.192 457.394 749.996 457.058 751.196C456.746 752.372 456.59 754.148 456.59 756.524C456.59 758.9 456.746 760.688 457.058 761.888C457.37 763.088 457.85 763.892 458.498 764.3C459.146 764.708 460.118 764.912 461.414 764.912C462.71 764.912 463.67 764.708 464.294 764.3C464.942 763.892 465.422 763.088 465.734 761.888C466.046 760.688 466.202 758.9 466.202 756.524C466.202 754.148 466.046 752.372 465.734 751.196C465.422 749.996 464.942 749.192 464.294 748.784ZM485.036 748.64C484.484 748.592 483.884 748.568 483.236 748.568C482.612 748.568 481.796 748.76 480.788 749.144C479.78 749.528 478.988 749.948 478.412 750.404V767H475.424V746.048H477.332L477.728 748.172H477.944C478.928 747.452 479.972 746.84 481.076 746.336C482.18 745.832 483.092 745.58 483.812 745.58L485.288 745.76L485.036 748.64ZM492.975 747.272H497.151V749.684H492.975V760.556C492.975 762.572 493.071 763.784 493.263 764.192C493.479 764.6 494.115 764.804 495.171 764.804L497.115 764.732V767.144C496.611 767.264 495.939 767.324 495.099 767.324C493.371 767.324 492.087 766.856 491.247 765.92C490.407 764.96 489.987 763.1 489.987 760.34V749.612H487.611V747.74L490.095 747.236L490.887 742.34H492.975V747.272ZM509.926 767V763.796H513.598V767H509.926Z" fill="black"/>
<path d="M55.0948 671.248C52.6948 671.248 51.2308 671.572 50.7028 672.22C49.4788 673.708 48.8668 676.924 48.8668 681.868C48.8668 684.22 49.0828 686.2 49.5148 687.808C49.9708 689.392 50.4868 690.472 51.0628 691.048C51.6628 691.624 52.5508 691.912 53.7268 691.912C54.9028 691.912 56.0668 691.744 57.2188 691.408C58.3948 691.072 59.2948 690.736 59.9188 690.4L60.8908 689.896L61.9348 692.272C61.6948 692.44 61.3588 692.644 60.9268 692.884C60.5188 693.124 59.6428 693.448 58.2988 693.856C56.9548 694.264 55.5988 694.468 54.2308 694.468C48.4708 694.468 45.5908 690.232 45.5908 681.76C45.5908 675.76 46.8388 671.848 49.3348 670.024C50.1268 669.448 50.9548 669.052 51.8188 668.836C52.7068 668.62 54.0388 668.512 55.8148 668.512C57.6148 668.512 59.3068 668.704 60.8908 669.088L60.5308 671.68C58.3228 671.392 56.5108 671.248 55.0948 671.248ZM70.2151 694H67.2271V666.892H70.2151V694ZM80.2482 694H77.2602V673.048H80.2482V694ZM80.6082 669.952H76.9362V666.892H80.6082V669.952ZM95.0413 675.208C93.2173 675.208 91.9933 675.52 91.3693 676.144C90.8893 676.672 90.4933 677.62 90.1813 678.988C89.8693 680.332 89.7133 681.892 89.7133 683.668C89.7133 687.7 90.4813 690.244 92.0173 691.3C92.5453 691.684 93.2413 691.876 94.1053 691.876C94.9933 691.876 95.9413 691.744 96.9493 691.48C97.9813 691.192 99.0973 690.772 100.297 690.22L101.233 692.56C101.041 692.704 100.765 692.884 100.405 693.1C100.069 693.316 99.3373 693.604 98.2093 693.964C97.1053 694.3 95.9893 694.468 94.8613 694.468C92.2693 694.468 90.2413 693.58 88.7773 691.804C87.3133 690.004 86.5813 687.172 86.5813 683.308C86.5813 679.42 87.3853 676.66 88.9933 675.028C90.6013 673.396 92.8093 672.58 95.6173 672.58C97.4413 672.58 99.1453 672.772 100.729 673.156L100.369 675.676C97.7773 675.364 96.0013 675.208 95.0413 675.208ZM108.922 666.892V694H105.934L106.114 682.444L105.934 666.892H108.922ZM108.958 682.696L117.31 673.048H121.162L112.27 682.516V682.696L121.81 694H117.922L108.958 682.696ZM132.973 694H129.769L136.825 668.98H140.605L147.661 694H144.421L142.693 687.304H134.737L132.973 694ZM142.117 684.784L138.805 671.428H138.589L135.277 684.784H142.117ZM154.74 694H151.752V673.048H153.768L154.092 675.1H154.272C157.152 673.42 159.648 672.58 161.76 672.58C163.656 672.58 164.964 673.312 165.684 674.776C166.284 676 166.584 677.764 166.584 680.068V694H163.56V681.112C163.56 678.376 163.38 676.744 163.02 676.216C162.684 675.688 162.036 675.424 161.076 675.424C159.252 675.424 157.14 676.06 154.74 677.332V694ZM179.961 681.112H183.777C183.777 678.304 183.561 676.612 183.129 676.036C182.721 675.46 181.953 675.172 180.825 675.172C179.697 675.172 178.497 675.328 177.225 675.64C175.977 675.928 174.633 676.372 173.193 676.972L172.149 674.632C172.461 674.488 172.869 674.308 173.373 674.092C173.901 673.852 174.873 673.54 176.289 673.156C177.705 672.772 179.001 672.58 180.177 672.58C184.569 672.58 186.765 675.124 186.765 680.212V694H184.821L184.389 691.804H184.173C183.933 691.996 183.597 692.248 183.165 692.56C182.733 692.848 181.917 693.244 180.717 693.748C179.517 694.228 178.389 694.468 177.333 694.468C175.629 694.468 174.261 693.892 173.229 692.74C172.197 691.564 171.681 689.848 171.681 687.592C171.681 685.312 172.389 683.668 173.805 682.66C175.221 681.628 177.273 681.112 179.961 681.112ZM183.777 683.884C182.745 683.716 181.281 683.632 179.385 683.632C177.513 683.632 176.313 683.86 175.785 684.316C175.137 684.82 174.813 685.888 174.813 687.52C174.813 689.128 175.041 690.244 175.497 690.868C175.977 691.492 176.685 691.804 177.621 691.804C178.581 691.804 179.553 691.648 180.537 691.336C181.521 691 182.601 690.508 183.777 689.86V683.884ZM196.426 694H193.438V666.892H196.426V694ZM204.155 699.976L206.999 691.948L199.763 673.048H203.291L208.223 688.42H208.403L213.299 673.048H216.539L209.267 692.668L207.323 699.976H204.155ZM217.754 694V691.588L228.518 675.568V675.352L218.222 675.532V673.048H231.974V675.46L221.246 691.48V691.696L232.19 691.516V694H217.754ZM244.347 694.468C238.779 694.468 235.995 690.82 235.995 683.524C235.995 676.228 238.755 672.58 244.275 672.58C246.723 672.58 248.559 673.348 249.783 674.884C251.007 676.396 251.619 678.916 251.619 682.444V684.676H239.163C239.163 687.916 239.679 690.016 240.711 690.976C241.359 691.552 242.247 691.84 243.375 691.84C245.391 691.84 247.371 691.504 249.315 690.832L250.287 690.472L251.043 692.92C249.027 693.952 246.795 694.468 244.347 694.468ZM247.731 676.252C247.251 675.532 246.075 675.172 244.203 675.172C242.331 675.172 241.023 675.664 240.279 676.648C239.535 677.632 239.163 679.516 239.163 682.3L248.559 682.12C248.559 679.12 248.283 677.164 247.731 676.252ZM272.281 681.112H276.097C276.097 678.304 275.881 676.612 275.449 676.036C275.041 675.46 274.273 675.172 273.145 675.172C272.017 675.172 270.817 675.328 269.545 675.64C268.297 675.928 266.953 676.372 265.513 676.972L264.469 674.632C264.781 674.488 265.189 674.308 265.693 674.092C266.221 673.852 267.193 673.54 268.609 673.156C270.025 672.772 271.321 672.58 272.497 672.58C276.889 672.58 279.085 675.124 279.085 680.212V694H277.141L276.709 691.804H276.493C276.253 691.996 275.917 692.248 275.485 692.56C275.053 692.848 274.237 693.244 273.037 693.748C271.837 694.228 270.709 694.468 269.653 694.468C267.949 694.468 266.581 693.892 265.549 692.74C264.517 691.564 264.001 689.848 264.001 687.592C264.001 685.312 264.709 683.668 266.125 682.66C267.541 681.628 269.593 681.112 272.281 681.112ZM276.097 683.884C275.065 683.716 273.601 683.632 271.705 683.632C269.833 683.632 268.633 683.86 268.105 684.316C267.457 684.82 267.133 685.888 267.133 687.52C267.133 689.128 267.361 690.244 267.817 690.868C268.297 691.492 269.005 691.804 269.941 691.804C270.901 691.804 271.873 691.648 272.857 691.336C273.841 691 274.921 690.508 276.097 689.86V683.884ZM289.142 694H286.154V673.048H288.17L288.494 675.1H288.674C291.554 673.42 294.05 672.58 296.162 672.58C298.058 672.58 299.366 673.312 300.086 674.776C300.686 676 300.986 677.764 300.986 680.068V694H297.962V681.112C297.962 678.376 297.782 676.744 297.422 676.216C297.086 675.688 296.438 675.424 295.478 675.424C293.654 675.424 291.542 676.06 289.142 677.332V694ZM321.815 666.892V694H319.835L319.439 691.84H319.223C319.031 692.032 318.755 692.272 318.395 692.56C318.035 692.848 317.327 693.244 316.271 693.748C315.239 694.228 314.243 694.468 313.283 694.468C311.243 694.468 309.623 693.592 308.423 691.84C307.247 690.064 306.659 687.424 306.659 683.92C306.659 676.36 309.143 672.58 314.111 672.58C315.383 672.58 316.955 672.832 318.827 673.336V666.892H321.815ZM318.827 676.216C317.291 675.568 315.731 675.244 314.147 675.244C312.587 675.244 311.567 675.532 311.087 676.108C310.223 677.236 309.791 679.852 309.791 683.956C309.791 688.036 310.331 690.496 311.411 691.336C311.723 691.624 312.323 691.768 313.211 691.768C314.123 691.768 315.023 691.612 315.911 691.3C316.823 690.988 317.795 690.52 318.827 689.896V676.216ZM358.415 673.048L354.203 694H349.775L346.247 677.512H346.031L342.503 694H338.111L333.899 673.048H336.923L340.199 692.272H340.379L343.943 675.82H348.371L351.899 692.272H352.115L355.355 673.048H358.415ZM369.524 681.112H373.34C373.34 678.304 373.124 676.612 372.692 676.036C372.284 675.46 371.516 675.172 370.388 675.172C369.26 675.172 368.06 675.328 366.788 675.64C365.54 675.928 364.196 676.372 362.756 676.972L361.712 674.632C362.024 674.488 362.432 674.308 362.936 674.092C363.464 673.852 364.436 673.54 365.852 673.156C367.268 672.772 368.564 672.58 369.74 672.58C374.132 672.58 376.328 675.124 376.328 680.212V694H374.384L373.952 691.804H373.736C373.496 691.996 373.16 692.248 372.728 692.56C372.296 692.848 371.48 693.244 370.28 693.748C369.08 694.228 367.952 694.468 366.896 694.468C365.192 694.468 363.824 693.892 362.792 692.74C361.76 691.564 361.244 689.848 361.244 687.592C361.244 685.312 361.952 683.668 363.368 682.66C364.784 681.628 366.836 681.112 369.524 681.112ZM373.34 683.884C372.308 683.716 370.844 683.632 368.948 683.632C367.076 683.632 365.876 683.86 365.348 684.316C364.7 684.82 364.376 685.888 364.376 687.52C364.376 689.128 364.604 690.244 365.06 690.868C365.54 691.492 366.248 691.804 367.184 691.804C368.144 691.804 369.116 691.648 370.1 691.336C371.084 691 372.164 690.508 373.34 689.86V683.884ZM386.565 694H383.577V673.048H386.565V694ZM386.925 669.952H383.253V666.892H386.925V669.952ZM397.362 674.272H401.538V676.684H397.362V687.556C397.362 689.572 397.458 690.784 397.65 691.192C397.866 691.6 398.502 691.804 399.558 691.804L401.502 691.732V694.144C400.998 694.264 400.326 694.324 399.486 694.324C397.758 694.324 396.474 693.856 395.634 692.92C394.794 691.96 394.374 690.1 394.374 687.34V676.612H391.998V674.74L394.482 674.236L395.274 669.34H397.362V674.272ZM418.705 674.272H423.277V676.684H418.705V694H415.717V676.576H413.377V674.74L415.717 674.272C415.813 671.392 416.389 669.364 417.445 668.188C418.501 667.012 419.989 666.424 421.909 666.424L423.925 666.496L423.709 669.016C422.485 668.968 421.597 668.944 421.045 668.944C420.493 668.944 420.049 669.04 419.713 669.232C419.041 669.664 418.705 671.344 418.705 674.272ZM426.261 683.56C426.261 679.96 426.849 677.236 428.025 675.388C429.225 673.516 431.241 672.58 434.073 672.58C436.929 672.58 438.957 673.516 440.157 675.388C441.357 677.236 441.957 679.948 441.957 683.524C441.957 687.1 441.357 689.824 440.157 691.696C438.957 693.544 436.929 694.468 434.073 694.468C431.241 694.468 429.225 693.544 428.025 691.696C426.849 689.848 426.261 687.136 426.261 683.56ZM436.989 675.784C436.365 675.376 435.405 675.172 434.109 675.172C432.813 675.172 431.841 675.376 431.193 675.784C430.569 676.192 430.089 676.996 429.753 678.196C429.441 679.372 429.285 681.148 429.285 683.524C429.285 685.9 429.441 687.688 429.753 688.888C430.065 690.088 430.545 690.892 431.193 691.3C431.841 691.708 432.813 691.912 434.109 691.912C435.405 691.912 436.365 691.708 436.989 691.3C437.637 690.892 438.117 690.088 438.429 688.888C438.741 687.688 438.897 685.9 438.897 683.524C438.897 681.148 438.741 679.372 438.429 678.196C438.117 676.996 437.637 676.192 436.989 675.784ZM457.731 675.64C457.179 675.592 456.579 675.568 455.931 675.568C455.307 675.568 454.491 675.76 453.483 676.144C452.475 676.528 451.683 676.948 451.107 677.404V694H448.119V673.048H450.027L450.423 675.172H450.639C451.623 674.452 452.667 673.84 453.771 673.336C454.875 672.832 455.787 672.58 456.507 672.58L457.983 672.76L457.731 675.64ZM480.02 675.64C479.468 675.592 478.868 675.568 478.22 675.568C477.596 675.568 476.78 675.76 475.772 676.144C474.764 676.528 473.972 676.948 473.396 677.404V694H470.408V673.048H472.316L472.712 675.172H472.928C473.912 674.452 474.956 673.84 476.06 673.336C477.164 672.832 478.076 672.58 478.796 672.58L480.272 672.76L480.02 675.64ZM491.847 694.468C486.279 694.468 483.495 690.82 483.495 683.524C483.495 676.228 486.255 672.58 491.775 672.58C494.223 672.58 496.059 673.348 497.283 674.884C498.507 676.396 499.119 678.916 499.119 682.444V684.676H486.663C486.663 687.916 487.179 690.016 488.211 690.976C488.859 691.552 489.747 691.84 490.875 691.84C492.891 691.84 494.871 691.504 496.815 690.832L497.787 690.472L498.543 692.92C496.527 693.952 494.295 694.468 491.847 694.468ZM495.231 676.252C494.751 675.532 493.575 675.172 491.703 675.172C489.831 675.172 488.523 675.664 487.779 676.648C487.035 677.632 486.663 679.516 486.663 682.3L496.059 682.12C496.059 679.12 495.783 677.164 495.231 676.252ZM515.619 675.964C513.723 675.436 511.935 675.172 510.255 675.172C508.575 675.172 507.495 675.352 507.015 675.712C506.535 676.072 506.295 676.768 506.295 677.8C506.295 678.712 506.463 679.348 506.799 679.708C507.159 680.044 507.435 680.296 507.627 680.464C507.819 680.632 508.143 680.812 508.599 681.004C509.055 681.172 509.391 681.292 509.607 681.364C510.495 681.628 511.299 681.856 512.019 682.048C513.627 682.504 514.875 683.152 515.763 683.992C516.651 684.832 517.095 686.2 517.095 688.096C517.095 689.968 516.495 691.504 515.295 692.704C514.119 693.88 512.451 694.468 510.291 694.468C509.235 694.468 508.131 694.324 506.979 694.036C505.851 693.748 504.675 693.316 503.451 692.74L504.207 690.184C506.391 691.312 508.599 691.876 510.831 691.876C511.911 691.876 512.679 691.684 513.135 691.3C513.831 690.7 514.179 689.764 514.179 688.492C514.179 686.908 513.447 685.792 511.983 685.144C511.407 684.88 510.603 684.604 509.571 684.316C508.539 684.004 507.831 683.788 507.447 683.668C507.087 683.548 506.595 683.332 505.971 683.02C505.371 682.684 504.927 682.336 504.639 681.976C503.871 681.016 503.487 679.78 503.487 678.268C503.487 674.476 505.767 672.58 510.327 672.58C512.439 672.58 514.359 672.868 516.087 673.444L515.619 675.964ZM534.166 673.048H537.154V694H535.138L534.778 691.984H534.598C534.574 691.984 534.202 692.188 533.482 692.596C532.786 692.98 532.21 693.28 531.754 693.496C530.29 694.144 528.91 694.468 527.614 694.468C524.11 694.468 522.358 691.972 522.358 686.98V673.048H525.346V685.936C525.346 688.696 525.502 690.352 525.814 690.904C526.15 691.432 526.93 691.696 528.154 691.696C529.402 691.696 531.406 691.06 534.166 689.788V673.048ZM547.004 694H544.016V666.892H547.004V694ZM557.217 674.272H561.393V676.684H557.217V687.556C557.217 689.572 557.313 690.784 557.505 691.192C557.721 691.6 558.357 691.804 559.413 691.804L561.357 691.732V694.144C560.853 694.264 560.181 694.324 559.341 694.324C557.613 694.324 556.329 693.856 555.489 692.92C554.649 691.96 554.229 690.1 554.229 687.34V676.612H551.853V674.74L554.337 674.236L555.129 669.34H557.217V674.272ZM577.494 675.964C575.598 675.436 573.81 675.172 572.13 675.172C570.45 675.172 569.37 675.352 568.89 675.712C568.41 676.072 568.17 676.768 568.17 677.8C568.17 678.712 568.338 679.348 568.674 679.708C569.034 680.044 569.31 680.296 569.502 680.464C569.694 680.632 570.018 680.812 570.474 681.004C570.93 681.172 571.266 681.292 571.482 681.364C572.37 681.628 573.174 681.856 573.894 682.048C575.502 682.504 576.75 683.152 577.638 683.992C578.526 684.832 578.97 686.2 578.97 688.096C578.97 689.968 578.37 691.504 577.17 692.704C575.994 693.88 574.326 694.468 572.166 694.468C571.11 694.468 570.006 694.324 568.854 694.036C567.726 693.748 566.55 693.316 565.326 692.74L566.082 690.184C568.266 691.312 570.474 691.876 572.706 691.876C573.786 691.876 574.554 691.684 575.01 691.3C575.706 690.7 576.054 689.764 576.054 688.492C576.054 686.908 575.322 685.792 573.858 685.144C573.282 684.88 572.478 684.604 571.446 684.316C570.414 684.004 569.706 683.788 569.322 683.668C568.962 683.548 568.47 683.332 567.846 683.02C567.246 682.684 566.802 682.336 566.514 681.976C565.746 681.016 565.362 679.78 565.362 678.268C565.362 674.476 567.642 672.58 572.202 672.58C574.314 672.58 576.234 672.868 577.962 673.444L577.494 675.964Z" fill="black"/>
<path d="M69.2126 523.768C70.6526 523.768 71.6486 523.42 72.2006 522.724C72.7766 522.004 73.0646 520.756 73.0646 518.98C73.0646 517.204 72.6806 515.92 71.9126 515.128C71.1446 514.336 69.8966 513.94 68.1686 513.94H64.8206V511.564C67.8926 511.3 69.8006 511.024 70.5446 510.736C71.5766 510.328 72.1766 509.524 72.3446 508.324C72.3926 508.012 72.4166 507.64 72.4166 507.208C72.4166 505.672 72.1406 504.604 71.5886 504.004C71.0606 503.404 69.7286 503.104 67.5926 503.104C66.6806 503.104 65.0366 503.248 62.6606 503.536L62.3006 501.088C63.7886 500.704 65.6366 500.512 67.8446 500.512C72.9566 500.512 75.5126 502.612 75.5126 506.812C75.5126 507.916 75.3446 508.864 75.0086 509.656C74.6966 510.448 74.2886 511.024 73.7846 511.384C72.8726 512.032 72.1046 512.404 71.4806 512.5V512.644C72.6086 512.788 73.6406 513.256 74.5766 514.048C75.7046 515.032 76.2686 516.664 76.2686 518.944C76.2686 521.2 75.6566 523.024 74.4326 524.416C73.2326 525.784 71.3366 526.468 68.7446 526.468C67.4486 526.468 66.1526 526.3 64.8566 525.964C63.5606 525.604 62.5886 525.244 61.9406 524.884L60.9686 524.344L62.1206 522.04C64.6646 523.192 67.0286 523.768 69.2126 523.768ZM87.88 524.164L88.96 521.716C89.896 522.22 91.048 522.676 92.416 523.084C93.808 523.492 95.008 523.696 96.016 523.696C97.048 523.696 97.816 523.54 98.32 523.228C99.328 522.532 99.832 521.308 99.832 519.556C99.832 518.332 99.46 517.36 98.716 516.64C97.996 515.92 97.084 515.332 95.98 514.876C94.876 514.396 94.132 514.084 93.748 513.94C93.388 513.772 92.86 513.508 92.164 513.148C91.468 512.764 90.964 512.416 90.652 512.104C90.364 511.768 90.04 511.36 89.68 510.88C89.008 509.992 88.672 508.66 88.672 506.884C88.672 505.108 89.308 503.608 90.58 502.384C91.876 501.136 93.712 500.512 96.088 500.512C97.936 500.512 99.892 500.776 101.956 501.304L101.452 503.896C99.436 503.464 97.672 503.248 96.16 503.248C94.672 503.248 93.664 503.404 93.136 503.716C92.272 504.196 91.84 505.228 91.84 506.812C91.84 507.868 92.188 508.792 92.884 509.584C93.388 510.136 94.264 510.688 95.512 511.24C95.824 511.384 96.388 511.624 97.204 511.96C98.044 512.296 98.74 512.62 99.292 512.932C99.844 513.244 100.432 513.676 101.056 514.228C102.328 515.332 102.964 516.976 102.964 519.16C102.964 521.344 102.268 523.108 100.876 524.452C99.484 525.796 97.672 526.468 95.44 526.468C94.264 526.468 93.04 526.276 91.768 525.892C90.52 525.508 89.56 525.124 88.888 524.74L87.88 524.164ZM111.955 506.272H116.131V508.684H111.955V519.556C111.955 521.572 112.051 522.784 112.243 523.192C112.459 523.6 113.095 523.804 114.151 523.804L116.095 523.732V526.144C115.591 526.264 114.919 526.324 114.079 526.324C112.351 526.324 111.067 525.856 110.227 524.92C109.387 523.96 108.967 522.1 108.967 519.34V508.612H106.591V506.74L109.075 506.236L109.867 501.34H111.955V506.272ZM128.956 526.468C123.388 526.468 120.604 522.82 120.604 515.524C120.604 508.228 123.364 504.58 128.884 504.58C131.332 504.58 133.168 505.348 134.392 506.884C135.616 508.396 136.228 510.916 136.228 514.444V516.676H123.772C123.772 519.916 124.288 522.016 125.32 522.976C125.968 523.552 126.856 523.84 127.984 523.84C130 523.84 131.98 523.504 133.924 522.832L134.896 522.472L135.652 524.92C133.636 525.952 131.404 526.468 128.956 526.468ZM132.34 508.252C131.86 507.532 130.684 507.172 128.812 507.172C126.94 507.172 125.632 507.664 124.888 508.648C124.144 509.632 123.772 511.516 123.772 514.3L133.168 514.12C133.168 511.12 132.892 509.164 132.34 508.252ZM144.628 531.976H141.64V505.048H143.656L144.052 507.172H144.232C144.28 507.148 144.544 506.968 145.024 506.632C145.504 506.296 145.96 505.996 146.392 505.732C146.848 505.468 147.46 505.216 148.228 504.976C148.996 504.712 149.752 504.58 150.496 504.58C152.512 504.58 154.072 505.444 155.176 507.172C156.28 508.9 156.832 511.552 156.832 515.128C156.832 522.688 154.3 526.468 149.236 526.468C148.132 526.468 146.596 526.3 144.628 525.964V531.976ZM144.628 523.084C146.668 523.588 148.288 523.84 149.488 523.84C150.688 523.84 151.516 523.648 151.972 523.264C153.1 522.328 153.664 519.424 153.664 514.552C153.664 510.808 153.316 508.588 152.62 507.892C152.212 507.484 151.564 507.28 150.676 507.28C149.788 507.28 148.84 507.448 147.832 507.784C146.848 508.096 145.78 508.576 144.628 509.224V523.084ZM175.183 522.688C175.855 523.456 177.139 523.84 179.035 523.84C180.955 523.84 182.359 523.66 183.247 523.3V515.38L179.431 515.2V512.968H186.127V525.064C184.303 526 182.047 526.468 179.359 526.468C178.279 526.468 177.307 526.36 176.443 526.144C175.579 525.952 174.727 525.568 173.887 524.992C173.071 524.416 172.387 523.648 171.835 522.688C170.635 520.576 170.035 517.48 170.035 513.4C170.035 508.24 170.947 504.748 172.771 502.924C173.683 502.012 174.691 501.388 175.795 501.052C176.899 500.692 178.459 500.512 180.475 500.512C182.515 500.512 184.351 500.716 185.983 501.124L185.623 503.716C182.911 503.404 180.907 503.248 179.611 503.248C177.235 503.248 175.735 503.572 175.111 504.22C173.911 505.468 173.299 508.504 173.275 513.328C173.299 518.176 173.935 521.296 175.183 522.688ZM204.462 505.048H207.45V526H205.434L205.074 523.984H204.894C204.87 523.984 204.498 524.188 203.778 524.596C203.082 524.98 202.506 525.28 202.05 525.496C200.586 526.144 199.206 526.468 197.91 526.468C194.406 526.468 192.654 523.972 192.654 518.98V505.048H195.642V517.936C195.642 520.696 195.798 522.352 196.11 522.904C196.446 523.432 197.226 523.696 198.45 523.696C199.698 523.696 201.702 523.06 204.462 521.788V505.048ZM217.876 526H214.888V505.048H217.876V526ZM218.236 501.952H214.564V498.892H218.236V501.952ZM239.365 498.892V526H237.385L236.989 523.84H236.773C236.581 524.032 236.305 524.272 235.945 524.56C235.585 524.848 234.877 525.244 233.821 525.748C232.789 526.228 231.793 526.468 230.833 526.468C228.793 526.468 227.173 525.592 225.973 523.84C224.797 522.064 224.209 519.424 224.209 515.92C224.209 508.36 226.693 504.58 231.661 504.58C232.933 504.58 234.505 504.832 236.377 505.336V498.892H239.365ZM236.377 508.216C234.841 507.568 233.281 507.244 231.697 507.244C230.137 507.244 229.117 507.532 228.637 508.108C227.773 509.236 227.341 511.852 227.341 515.956C227.341 520.036 227.881 522.496 228.961 523.336C229.273 523.624 229.873 523.768 230.761 523.768C231.673 523.768 232.573 523.612 233.461 523.3C234.373 522.988 235.345 522.52 236.377 521.896V508.216ZM253.479 526.468C247.911 526.468 245.127 522.82 245.127 515.524C245.127 508.228 247.887 504.58 253.407 504.58C255.855 504.58 257.691 505.348 258.915 506.884C260.139 508.396 260.751 510.916 260.751 514.444V516.676H248.295C248.295 519.916 248.811 522.016 249.843 522.976C250.491 523.552 251.379 523.84 252.507 523.84C254.523 523.84 256.503 523.504 258.447 522.832L259.419 522.472L260.175 524.92C258.159 525.952 255.927 526.468 253.479 526.468ZM256.863 508.252C256.383 507.532 255.207 507.172 253.335 507.172C251.463 507.172 250.155 507.664 249.411 508.648C248.667 509.632 248.295 511.516 248.295 514.3L257.691 514.12C257.691 511.12 257.415 509.164 256.863 508.252ZM278.173 506.272H282.349V508.684H278.173V519.556C278.173 521.572 278.269 522.784 278.461 523.192C278.677 523.6 279.313 523.804 280.369 523.804L282.313 523.732V526.144C281.809 526.264 281.137 526.324 280.297 526.324C278.569 526.324 277.285 525.856 276.445 524.92C275.605 523.96 275.185 522.1 275.185 519.34V508.612H272.809V506.74L275.293 506.236L276.085 501.34H278.173V506.272ZM286.823 515.56C286.823 511.96 287.411 509.236 288.587 507.388C289.787 505.516 291.803 504.58 294.635 504.58C297.491 504.58 299.519 505.516 300.719 507.388C301.919 509.236 302.519 511.948 302.519 515.524C302.519 519.1 301.919 521.824 300.719 523.696C299.519 525.544 297.491 526.468 294.635 526.468C291.803 526.468 289.787 525.544 288.587 523.696C287.411 521.848 286.823 519.136 286.823 515.56ZM297.551 507.784C296.927 507.376 295.967 507.172 294.671 507.172C293.375 507.172 292.403 507.376 291.755 507.784C291.131 508.192 290.651 508.996 290.315 510.196C290.003 511.372 289.847 513.148 289.847 515.524C289.847 517.9 290.003 519.688 290.315 520.888C290.627 522.088 291.107 522.892 291.755 523.3C292.403 523.708 293.375 523.912 294.671 523.912C295.967 523.912 296.927 523.708 297.551 523.3C298.199 522.892 298.679 522.088 298.991 520.888C299.303 519.688 299.459 517.9 299.459 515.524C299.459 513.148 299.303 511.372 298.991 510.196C298.679 508.996 298.199 508.192 297.551 507.784ZM323.355 513.112H327.171C327.171 510.304 326.955 508.612 326.523 508.036C326.115 507.46 325.347 507.172 324.219 507.172C323.091 507.172 321.891 507.328 320.619 507.64C319.371 507.928 318.027 508.372 316.587 508.972L315.543 506.632C315.855 506.488 316.263 506.308 316.767 506.092C317.295 505.852 318.267 505.54 319.683 505.156C321.099 504.772 322.395 504.58 323.571 504.58C327.963 504.58 330.159 507.124 330.159 512.212V526H328.215L327.783 523.804H327.567C327.327 523.996 326.991 524.248 326.559 524.56C326.127 524.848 325.311 525.244 324.111 525.748C322.911 526.228 321.783 526.468 320.727 526.468C319.023 526.468 317.655 525.892 316.623 524.74C315.591 523.564 315.075 521.848 315.075 519.592C315.075 517.312 315.783 515.668 317.199 514.66C318.615 513.628 320.667 513.112 323.355 513.112ZM327.171 515.884C326.139 515.716 324.675 515.632 322.779 515.632C320.907 515.632 319.707 515.86 319.179 516.316C318.531 516.82 318.207 517.888 318.207 519.52C318.207 521.128 318.435 522.244 318.891 522.868C319.371 523.492 320.079 523.804 321.015 523.804C321.975 523.804 322.947 523.648 323.931 523.336C324.915 523 325.995 522.508 327.171 521.86V515.884ZM340.216 526H337.228V505.048H339.244L339.568 507.1H339.748C342.628 505.42 345.124 504.58 347.236 504.58C349.132 504.58 350.44 505.312 351.16 506.776C351.76 508 352.06 509.764 352.06 512.068V526H349.036V513.112C349.036 510.376 348.856 508.744 348.496 508.216C348.16 507.688 347.512 507.424 346.552 507.424C344.728 507.424 342.616 508.06 340.216 509.332V526ZM365.437 513.112H369.253C369.253 510.304 369.037 508.612 368.605 508.036C368.197 507.46 367.429 507.172 366.301 507.172C365.173 507.172 363.973 507.328 362.701 507.64C361.453 507.928 360.109 508.372 358.669 508.972L357.625 506.632C357.937 506.488 358.345 506.308 358.849 506.092C359.377 505.852 360.349 505.54 361.765 505.156C363.181 504.772 364.477 504.58 365.653 504.58C370.045 504.58 372.241 507.124 372.241 512.212V526H370.297L369.865 523.804H369.649C369.409 523.996 369.073 524.248 368.641 524.56C368.209 524.848 367.393 525.244 366.193 525.748C364.993 526.228 363.865 526.468 362.809 526.468C361.105 526.468 359.737 525.892 358.705 524.74C357.673 523.564 357.157 521.848 357.157 519.592C357.157 517.312 357.865 515.668 359.281 514.66C360.697 513.628 362.749 513.112 365.437 513.112ZM369.253 515.884C368.221 515.716 366.757 515.632 364.861 515.632C362.989 515.632 361.789 515.86 361.261 516.316C360.613 516.82 360.289 517.888 360.289 519.52C360.289 521.128 360.517 522.244 360.973 522.868C361.453 523.492 362.161 523.804 363.097 523.804C364.057 523.804 365.029 523.648 366.013 523.336C366.997 523 368.077 522.508 369.253 521.86V515.884ZM381.902 526H378.914V498.892H381.902V526ZM389.631 531.976L392.475 523.948L385.239 505.048H388.767L393.699 520.42H393.879L398.775 505.048H402.015L394.743 524.668L392.799 531.976H389.631ZM403.23 526V523.588L413.994 507.568V507.352L403.698 507.532V505.048H417.45V507.46L406.722 523.48V523.696L417.666 523.516V526H403.23ZM429.823 526.468C424.255 526.468 421.471 522.82 421.471 515.524C421.471 508.228 424.231 504.58 429.751 504.58C432.199 504.58 434.035 505.348 435.259 506.884C436.483 508.396 437.095 510.916 437.095 514.444V516.676H424.639C424.639 519.916 425.155 522.016 426.187 522.976C426.835 523.552 427.723 523.84 428.851 523.84C430.867 523.84 432.847 523.504 434.791 522.832L435.763 522.472L436.519 524.92C434.503 525.952 432.271 526.468 429.823 526.468ZM433.207 508.252C432.727 507.532 431.551 507.172 429.679 507.172C427.807 507.172 426.499 507.664 425.755 508.648C425.011 509.632 424.639 511.516 424.639 514.3L434.035 514.12C434.035 511.12 433.759 509.164 433.207 508.252ZM458.513 507.208C456.689 507.208 455.465 507.52 454.841 508.144C454.361 508.672 453.965 509.62 453.653 510.988C453.341 512.332 453.185 513.892 453.185 515.668C453.185 519.7 453.953 522.244 455.489 523.3C456.017 523.684 456.713 523.876 457.577 523.876C458.465 523.876 459.413 523.744 460.421 523.48C461.453 523.192 462.569 522.772 463.769 522.22L464.705 524.56C464.513 524.704 464.237 524.884 463.877 525.1C463.541 525.316 462.809 525.604 461.681 525.964C460.577 526.3 459.461 526.468 458.333 526.468C455.741 526.468 453.713 525.58 452.249 523.804C450.785 522.004 450.053 519.172 450.053 515.308C450.053 511.42 450.857 508.66 452.465 507.028C454.073 505.396 456.281 504.58 459.089 504.58C460.913 504.58 462.617 504.772 464.201 505.156L463.841 507.676C461.249 507.364 459.473 507.208 458.513 507.208ZM479.414 507.64C478.862 507.592 478.262 507.568 477.614 507.568C476.99 507.568 476.174 507.76 475.166 508.144C474.158 508.528 473.366 508.948 472.79 509.404V526H469.802V505.048H471.71L472.106 507.172H472.322C473.306 506.452 474.35 505.84 475.454 505.336C476.558 504.832 477.47 504.58 478.19 504.58L479.666 504.76L479.414 507.64ZM482.889 515.56C482.889 511.96 483.477 509.236 484.653 507.388C485.853 505.516 487.869 504.58 490.701 504.58C493.557 504.58 495.585 505.516 496.785 507.388C497.985 509.236 498.585 511.948 498.585 515.524C498.585 519.1 497.985 521.824 496.785 523.696C495.585 525.544 493.557 526.468 490.701 526.468C487.869 526.468 485.853 525.544 484.653 523.696C483.477 521.848 482.889 519.136 482.889 515.56ZM493.617 507.784C492.993 507.376 492.033 507.172 490.737 507.172C489.441 507.172 488.469 507.376 487.821 507.784C487.197 508.192 486.717 508.996 486.381 510.196C486.069 511.372 485.913 513.148 485.913 515.524C485.913 517.9 486.069 519.688 486.381 520.888C486.693 522.088 487.173 522.892 487.821 523.3C488.469 523.708 489.441 523.912 490.737 523.912C492.033 523.912 492.993 523.708 493.617 523.3C494.265 522.892 494.745 522.088 495.057 520.888C495.369 519.688 495.525 517.9 495.525 515.524C495.525 513.148 495.369 511.372 495.057 510.196C494.745 508.996 494.265 508.192 493.617 507.784ZM507.159 531.976H504.171V505.048H506.187L506.583 507.172H506.763C506.811 507.148 507.075 506.968 507.555 506.632C508.035 506.296 508.491 505.996 508.923 505.732C509.379 505.468 509.991 505.216 510.759 504.976C511.527 504.712 512.283 504.58 513.027 504.58C515.043 504.58 516.603 505.444 517.707 507.172C518.811 508.9 519.363 511.552 519.363 515.128C519.363 522.688 516.831 526.468 511.767 526.468C510.663 526.468 509.127 526.3 507.159 525.964V531.976ZM507.159 523.084C509.199 523.588 510.819 523.84 512.019 523.84C513.219 523.84 514.047 523.648 514.503 523.264C515.631 522.328 516.195 519.424 516.195 514.552C516.195 510.808 515.847 508.588 515.151 507.892C514.743 507.484 514.095 507.28 513.207 507.28C512.319 507.28 511.371 507.448 510.363 507.784C509.379 508.096 508.311 508.576 507.159 509.224V523.084ZM536.037 507.964C534.141 507.436 532.353 507.172 530.673 507.172C528.993 507.172 527.913 507.352 527.433 507.712C526.953 508.072 526.713 508.768 526.713 509.8C526.713 510.712 526.881 511.348 527.217 511.708C527.577 512.044 527.853 512.296 528.045 512.464C528.237 512.632 528.561 512.812 529.017 513.004C529.473 513.172 529.809 513.292 530.025 513.364C530.913 513.628 531.717 513.856 532.437 514.048C534.045 514.504 535.293 515.152 536.181 515.992C537.069 516.832 537.513 518.2 537.513 520.096C537.513 521.968 536.913 523.504 535.713 524.704C534.537 525.88 532.869 526.468 530.709 526.468C529.653 526.468 528.549 526.324 527.397 526.036C526.269 525.748 525.093 525.316 523.869 524.74L524.625 522.184C526.809 523.312 529.017 523.876 531.249 523.876C532.329 523.876 533.097 523.684 533.553 523.3C534.249 522.7 534.597 521.764 534.597 520.492C534.597 518.908 533.865 517.792 532.401 517.144C531.825 516.88 531.021 516.604 529.989 516.316C528.957 516.004 528.249 515.788 527.865 515.668C527.505 515.548 527.013 515.332 526.389 515.02C525.789 514.684 525.345 514.336 525.057 513.976C524.289 513.016 523.905 511.78 523.905 510.268C523.905 506.476 526.185 504.58 530.745 504.58C532.857 504.58 534.777 504.868 536.505 505.444L536.037 507.964Z" fill="#C25506"/>
<path d="M372.607 253.278C392.185 253.278 408.055 238.88 408.055 221.119C408.055 203.358 392.185 188.96 372.607 188.96C353.029 188.96 337.159 203.358 337.159 221.119C337.159 238.88 353.029 253.278 372.607 253.278Z" fill="#E94A18"/>
<path d="M372.286 279.276L372.576 220.942" stroke="#3F3D56" stroke-width="2" stroke-miterlimit="10"/>
<path d="M372.576 229.191C377.598 229.191 381.67 225.498 381.67 220.942C381.67 216.386 377.598 212.692 372.576 212.692C367.554 212.692 363.483 216.386 363.483 220.942C363.483 225.498 367.554 229.191 372.576 229.191Z" fill="#DBDF14"/>
<path d="M372.397 256.894C372.397 256.894 371.225 231.543 344.58 234.38Z" fill="#31CE41"/>
<path d="M224.109 188.712C243.687 188.712 259.558 174.314 259.558 156.553C259.558 138.792 243.687 124.394 224.109 124.394C204.532 124.394 188.661 138.792 188.661 156.553C188.661 174.314 204.532 188.712 224.109 188.712Z" fill="#E7633A"/>
<path d="M222.102 275.276L224.142 156.518" stroke="#3F3D56" stroke-width="2" stroke-miterlimit="10"/>
<path d="M224.142 164.767C229.164 164.767 233.236 161.074 233.236 156.518C233.236 151.962 229.164 148.268 224.142 148.268C219.12 148.268 215.049 151.962 215.049 156.518C215.049 161.074 219.12 164.767 224.142 164.767Z" fill="#DBDF14"/>
<path d="M223.565 190.11C223.565 190.11 222.702 164.748 196.024 167.317Z" fill="#44D611"/>
<path d="M222.141 273.009C222.141 273.009 228.823 224.355 195.093 221.521" stroke="#3F3D56" stroke-width="2" stroke-miterlimit="10"/>
<path d="M195.093 229.77C200.115 229.77 204.186 226.077 204.186 221.521C204.186 216.965 200.115 213.272 195.093 213.272C190.071 213.272 186 216.965 186 221.521C186 226.077 190.071 229.77 195.093 229.77Z" fill="#FF6584" fill-opacity="0.97"/>
<path d="M300.341 117.318C319.918 117.318 335.789 102.92 335.789 85.1589C335.789 67.398 319.918 53 300.341 53C280.763 53 264.892 67.398 264.892 85.1589C264.892 102.92 280.763 117.318 300.341 117.318Z" fill="#D92F2F"/>
<path d="M300.363 279.855V85.277" stroke="#3F3D56" stroke-width="2" stroke-miterlimit="10"/>
<path d="M300.363 93.4343C305.385 93.4343 309.456 89.7409 309.456 85.1849C309.456 80.6289 305.385 76.9355 300.363 76.9355C295.341 76.9355 291.27 80.6289 291.27 85.1849C291.27 89.7409 295.341 93.4343 300.363 93.4343Z" fill="#D2D611"/>
<path d="M272.434 234.213C277.456 234.213 281.527 230.519 281.527 225.963C281.527 221.407 277.456 217.714 272.434 217.714C267.412 217.714 263.341 221.407 263.341 225.963C263.341 230.519 267.412 234.213 272.434 234.213Z" fill="#FF6584" fill-opacity="0.97"/>
<path d="M300.363 127.323C300.363 127.323 299.064 101.977 272.434 104.923Z" fill="#31CE41"/>
<path d="M300.363 199.178C300.363 199.178 299.064 173.832 272.434 176.778Z" fill="#4CD91B"/>
<path d="M300.363 277.588C300.363 277.588 306.209 228.32 272.434 225.963" stroke="#803A08" stroke-width="2" stroke-miterlimit="10"/>
<path d="M328.85 156.83C333.872 156.83 337.943 153.137 337.943 148.581C337.943 144.025 333.872 140.332 328.85 140.332C323.828 140.332 319.757 144.025 319.757 148.581C319.757 153.137 323.828 156.83 328.85 156.83Z" fill="#FF6584" fill-opacity="0.97"/>
<path d="M300.921 197.577C300.921 197.577 295.075 150.938 328.85 148.581" stroke="#704722" stroke-width="2" stroke-miterlimit="10"/>
<path d="M300.86 375.4C362.934 375.4 413.255 329.749 413.255 273.435H188.465C188.465 329.749 238.786 375.4 300.86 375.4Z" fill="#803A08"/>
<defs>
<linearGradient id="paint0_linear" x1="1.00001" y1="15.7325" x2="569.158" y2="932.218" gradientUnits="userSpaceOnUse">
<stop stop-color="#AFF1DA"/>
<stop offset="1" stop-color="#FFE27A"/>
</linearGradient>
</defs>
</svg>
