<svg width="713" height="848" viewBox="0 0 713 848" fill="none" xmlns="http://www.w3.org/2000/svg">
<g clip-path="url(#clip0)">
<rect width="713" height="847.86" fill="url(#paint0_linear)"/>
<path opacity="0.5" d="M235.07 564.771C235.109 564.97 235.159 565.167 235.22 565.361H235.07V564.771Z" fill="black"/>
<path opacity="0.5" d="M477.89 564.771V565.361H477.74C477.801 565.167 477.851 564.97 477.89 564.771V564.771Z" fill="black"/>
<path opacity="0.5" d="M481.46 540.921V542.921H481.21C481.23 542.671 481.25 542.421 481.26 542.171C481.28 541.751 481.3 541.341 481.32 540.921H481.46Z" fill="black"/>
<path opacity="0.5" d="M481.46 529.691V531.691H481.41C481.4 531.021 481.37 530.361 481.34 529.691H481.46Z" fill="black"/>
<path opacity="0.5" d="M478.4 507.251V507.431C478.39 507.371 478.37 507.311 478.36 507.251H478.4Z" fill="black"/>
<path opacity="0.5" d="M241.96 484.801H242C241.991 484.832 241.977 484.863 241.96 484.891V484.801Z" fill="black"/>
<path opacity="0.5" d="M471 484.801V484.901C470.985 484.866 470.969 484.833 470.95 484.801H471Z" fill="black"/>
<path d="M646.69 694.161C582.68 785.581 476.57 845.361 356.5 845.361C234.99 845.361 127.78 784.141 64.03 690.861C118.93 586.511 230.4 612.361 356.5 612.361C483.92 612.361 592.37 588.021 646.69 694.161Z" fill="#764A07"/>
<path d="M356.5 637.361C477.707 637.361 581.745 615.346 638.358 704.557C641.207 700.814 643.984 697.015 646.69 693.161C592.37 587.021 483.92 611.361 356.5 611.361C230.4 611.361 118.93 585.511 64.03 689.861C66.744 693.832 69.5381 697.743 72.4122 701.593C129.776 613.965 236.513 637.361 356.5 637.361Z" fill="#8B5515"/>
<path d="M356.5 847.86C269.592 847.793 185.71 815.94 120.661 758.306C55.613 700.671 13.8912 621.235 3.35882 534.968C-7.17356 448.7 14.2109 361.559 63.482 289.968C112.753 218.376 186.508 167.278 270.847 146.303C355.186 125.328 444.285 135.926 521.351 176.098C598.417 216.27 658.129 283.243 689.233 364.394C720.337 445.546 720.685 535.271 690.211 616.661C659.738 698.052 600.547 765.486 523.795 806.254C472.271 833.595 414.828 847.881 356.5 847.86V847.86ZM356.5 137.86C302.816 137.885 249.843 150.136 201.6 173.684C153.356 197.232 111.11 231.458 78.0653 273.766C45.0208 316.075 22.0464 365.354 10.885 417.864C-0.276292 470.375 0.668681 524.738 13.6483 576.829C26.6278 628.92 51.3011 677.37 85.7961 718.505C120.291 759.639 163.702 792.377 212.734 814.234C261.767 836.091 315.134 846.493 368.786 844.652C422.438 842.81 474.966 828.773 522.385 803.606C571.72 777.252 614.162 739.661 646.281 693.87C680.509 644.829 701.756 587.917 708.04 528.444C714.324 468.971 705.44 408.876 682.218 353.765V353.765C655.196 289.719 609.876 235.071 551.936 196.665C493.997 158.26 426.013 137.804 356.5 137.86V137.86Z" fill="#3F3D56"/>
<path d="M132 299.361C184.743 299.361 227.5 256.604 227.5 203.861C227.5 151.117 184.743 108.361 132 108.361C79.2568 108.361 36.5 151.117 36.5 203.861C36.5 256.604 79.2568 299.361 132 299.361Z" fill="url(#paint1_linear)"/>
<path d="M535.391 327C625.689 327 698.891 253.799 698.891 163.5C698.891 73.2014 625.689 0 535.391 0C445.092 0 371.891 73.2014 371.891 163.5C371.891 253.799 445.092 327 535.391 327Z" fill="#53FE6E"/>
<path opacity="0.2" d="M657.012 54.2948C672.263 89.9694 674.332 129.904 662.849 166.964C651.366 204.023 627.08 235.792 594.33 256.594C561.58 277.396 522.501 285.874 484.075 280.515C445.649 275.155 410.381 256.307 384.573 227.338C393.889 249.134 407.833 268.644 425.438 284.516C443.043 300.387 463.888 312.242 486.529 319.258C509.17 326.274 533.066 328.283 556.561 325.147C580.056 322.011 602.588 313.805 622.596 301.096C642.605 288.387 659.611 271.481 672.437 251.547C685.262 231.614 693.601 209.13 696.875 185.654C700.148 162.178 698.279 138.27 691.396 115.589C684.513 92.9067 672.781 71.9924 657.012 54.2948V54.2948Z" fill="black"/>
<path d="M535.84 163.5H536.289L544.374 627.049H527.306L535.84 163.5Z" fill="#764A07"/>
<path d="M565.61 415.993L561.844 408.839L534.817 423.068L538.583 430.222L565.61 415.993Z" fill="#764A07"/>
<path d="M509.044 606.973C509.044 606.973 509.734 592.504 523.891 594.185Z" fill="#1F6904"/>
<path d="M505.044 593.204C508.957 593.204 512.129 590.031 512.129 586.118C512.129 582.205 508.957 579.033 505.044 579.033C501.131 579.033 497.958 582.205 497.958 586.118C497.958 590.031 501.131 593.204 505.044 593.204Z" fill="#53FE6E"/>
<path d="M505.891 598.049H503.891V612.049H505.891V598.049Z" fill="#764A07"/>
<path d="M602.044 633.973C602.044 633.973 602.734 619.504 616.891 621.185Z" fill="#1F6904"/>
<path d="M598.044 620.204C601.957 620.204 605.129 617.031 605.129 613.118C605.129 609.205 601.957 606.033 598.044 606.033C594.131 606.033 590.958 609.205 590.958 613.118C590.958 617.031 594.131 620.204 598.044 620.204Z" fill="#53FE6E"/>
<path d="M598.891 625.049H596.891V639.049H598.891V625.049Z" fill="#764A07"/>
<path d="M105.044 639.973C105.044 639.973 105.734 625.504 119.891 627.185Z" fill="#1F6904"/>
<path d="M101.044 626.204C104.957 626.204 108.129 623.031 108.129 619.118C108.129 615.205 104.957 612.033 101.044 612.033C97.1306 612.033 93.9584 615.205 93.9584 619.118C93.9584 623.031 97.1306 626.204 101.044 626.204Z" fill="#32EE03"/>
<path d="M101.891 631.049H99.8908V645.049H101.891V631.049Z" fill="#8B5515"/>
<path d="M565.044 616.973C565.044 616.973 565.734 602.504 579.891 604.185Z" fill="#1F6904"/>
<path d="M561.044 603.204C564.957 603.204 568.129 600.031 568.129 596.118C568.129 592.205 564.957 589.033 561.044 589.033C557.131 589.033 553.958 592.205 553.958 596.118C553.958 600.031 557.131 603.204 561.044 603.204Z" fill="#53FE6E"/>
<path d="M561.891 608.049H559.891V622.049H561.891V608.049Z" fill="#764A07"/>
<path d="M181.685 209.515L190.891 202.153C183.739 201.364 180.801 205.264 179.598 208.351C174.011 206.031 167.929 209.071 167.929 209.071L186.348 215.758C185.419 213.276 183.801 211.111 181.685 209.515V209.515Z" fill="#3F3D56"/>
<path d="M321.685 284.515L330.891 277.153C323.739 276.364 320.801 280.264 319.598 283.351C314.011 281.031 307.929 284.071 307.929 284.071L326.348 290.758C325.419 288.276 323.801 286.111 321.685 284.515V284.515Z" fill="#3F3D56"/>
<path d="M170.685 348.515L179.891 341.153C172.739 340.364 169.801 344.264 168.598 347.351C163.011 345.031 156.929 348.071 156.929 348.071L175.348 354.758C174.419 352.276 172.801 350.111 170.685 348.515Z" fill="#3F3D56"/>
<path d="M158.4 490.96C151.872 490.96 146.24 489.616 141.504 486.928C136.768 484.24 133.12 480.592 130.56 475.984C128 471.312 126.72 466 126.72 460.048C126.72 455.504 127.584 451.184 129.312 447.088C131.104 442.928 133.504 439.248 136.512 436.048C139.584 432.848 143.104 430.32 147.072 428.464C151.104 426.608 155.36 425.68 159.84 425.68C163.04 425.68 165.76 425.904 168 426.352C170.24 426.736 172.224 427.28 173.952 427.984C175.744 428.624 177.536 429.392 179.328 430.288L179.808 447.088H178.08L172.224 435.376C169.792 433.648 167.648 432.4 165.792 431.632C164 430.864 161.952 430.48 159.648 430.48C155.04 430.48 150.912 431.632 147.264 433.936C143.68 436.24 140.832 439.408 138.72 443.44C136.672 447.408 135.648 451.984 135.648 457.168C135.648 463.248 136.64 468.464 138.624 472.816C140.672 477.104 143.392 480.4 146.784 482.704C150.24 484.944 154.048 486.064 158.208 486.064C161.728 486.064 164.672 485.584 167.04 484.624C169.472 483.6 171.616 482.48 173.472 481.264L179.232 470.992H180.864L179.808 486.256C177.952 487.216 176.032 488.048 174.048 488.752C172.128 489.456 169.92 490 167.424 490.384C164.928 490.768 161.92 490.96 158.4 490.96ZM195.896 490V488.464L203.576 484.624V432.016L195.896 428.176V426.64H220.664C227.384 426.64 232.664 428.048 236.504 430.864C240.408 433.616 242.36 437.424 242.36 442.288C242.36 445.872 241.144 449.104 238.712 451.984C236.28 454.8 233.048 456.944 229.016 458.416L247.256 485.008L253.592 488.464V490H239.768L221.144 460.912H212.216V484.528L219.416 488.464V490H195.896ZM218.456 431.92H212.216V455.632H219.032C223.064 455.632 226.392 454.512 229.016 452.272C231.704 449.968 233.048 447.056 233.048 443.536C233.048 439.952 231.736 437.136 229.112 435.088C226.488 432.976 222.936 431.92 218.456 431.92ZM291.813 490.96C287.205 490.96 282.949 490.16 279.045 488.56C275.205 486.896 271.845 484.624 268.965 481.744C266.085 478.8 263.845 475.344 262.245 471.376C260.645 467.408 259.845 463.056 259.845 458.32C259.845 453.584 260.645 449.232 262.245 445.264C263.845 441.296 266.085 437.872 268.965 434.992C271.845 432.048 275.205 429.776 279.045 428.176C282.949 426.512 287.205 425.68 291.813 425.68C296.421 425.68 300.677 426.512 304.581 428.176C308.485 429.776 311.877 432.048 314.757 434.992C317.637 437.872 319.877 441.296 321.477 445.264C323.077 449.232 323.877 453.584 323.877 458.32C323.877 463.056 323.077 467.408 321.477 471.376C319.877 475.344 317.637 478.8 314.757 481.744C311.877 484.624 308.485 486.896 304.581 488.56C300.677 490.16 296.421 490.96 291.813 490.96ZM293.829 486.16C297.925 486.16 301.509 485.136 304.581 483.088C307.717 481.04 310.149 478.16 311.877 474.448C313.669 470.736 314.565 466.352 314.565 461.296C314.565 455.088 313.477 449.68 311.301 445.072C309.125 440.4 306.181 436.784 302.469 434.224C298.821 431.664 294.725 430.384 290.181 430.384C286.085 430.384 282.437 431.408 279.237 433.456C276.101 435.44 273.637 438.288 271.845 442C270.053 445.712 269.157 450.096 269.157 455.152C269.157 461.36 270.245 466.8 272.421 471.472C274.661 476.144 277.637 479.76 281.349 482.32C285.061 484.88 289.221 486.16 293.829 486.16ZM336.803 490V488.464L344.483 484.624V432.016L336.803 428.176V426.64H361.763C369.315 426.64 375.363 428.016 379.906 430.768C384.515 433.52 386.819 437.872 386.819 443.824C386.819 447.344 385.603 450.48 383.171 453.232C380.803 455.92 377.539 458.064 373.379 459.664C369.283 461.264 364.643 462.064 359.459 462.064H353.123V484.624L361.763 488.464V490H336.803ZM353.123 431.92V456.784H361.283C366.339 456.784 370.307 455.664 373.187 453.424C376.067 451.12 377.507 448.176 377.507 444.592C377.507 440.112 376.035 436.88 373.091 434.896C370.211 432.912 366.051 431.92 360.611 431.92H353.123ZM387.262 490V488.464L393.406 485.296L417.982 426.16H422.302L446.494 485.008L452.926 488.464V490H429.118V488.464L437.566 485.2L430.366 467.44H407.038L399.934 485.2L407.998 488.464V490H387.262ZM409.246 462.16H428.254L418.75 438.544L409.246 462.16ZM462.814 490V488.464L470.494 484.624V432.016L462.814 428.176V426.64H486.814V428.176L479.134 432.016V484.624L486.814 488.464V490H462.814Z" fill="white"/>
</g>
<defs>
<linearGradient id="paint0_linear" x1="6.8569e-06" y1="16" x2="592" y2="801" gradientUnits="userSpaceOnUse">
<stop stop-color="#0AD536"/>
<stop offset="1" stop-color="#09CBD8" stop-opacity="0.9"/>
</linearGradient>
<linearGradient id="paint1_linear" x1="57.5" y1="140" x2="207" y2="299" gradientUnits="userSpaceOnUse">
<stop stop-color="#DC0B0B"/>
<stop offset="1" stop-color="#FFC165" stop-opacity="0.87"/>
</linearGradient>
<clipPath id="clip0">
<rect width="713" height="847.86" fill="white"/>
</clipPath>
</defs>
</svg>
